<svg width="243" height="153" viewBox="0 0 243 153" fill="none" xmlns="http://www.w3.org/2000/svg">
<path d="M120.785 0L87.9087 12.3329V37.3688C87.9087 58.1293 101.922 77.4924 120.785 82.2196C139.648 77.4924 153.662 58.1293 153.662 37.3688V12.3329L120.785 0ZM116.429 55.6627L101.881 41.1098L107.676 35.3133L116.388 44.0286L133.812 26.598L139.607 32.3945L116.429 55.6627Z" fill="#31BA65"/>
<path d="M49.9855 119.397L49.0421 116.772H44.2908L43.3474 119.397H41.1689L45.6459 107.386H47.6871L52.1468 119.397H49.9855ZM48.3903 114.919L47.0695 111.315C46.898 110.881 46.7665 110.475 46.675 110.097C46.5835 110.429 46.452 110.835 46.2805 111.315L44.9426 114.919H48.3903ZM53.986 119.397V107.386H58.9775C60.3611 107.386 61.3789 107.746 62.0307 108.467C62.6825 109.188 63.0084 110.068 63.0084 111.109C63.0084 112.093 62.6654 112.963 61.9792 113.718C61.3046 114.473 60.304 114.85 58.9775 114.85H56.0443V119.397H53.986ZM59.0804 112.894C59.6865 112.894 60.1382 112.717 60.4355 112.362C60.7328 112.007 60.8815 111.59 60.8815 111.109C60.8815 110.652 60.7385 110.246 60.4526 109.891C60.1782 109.525 59.7208 109.342 59.0804 109.342H56.0443V112.894H59.0804ZM64.8908 119.397V107.386H66.9492V117.424H72.7812V119.397H64.8908ZM74.6752 119.397V107.386H76.7336V119.397H74.6752ZM87.194 119.397L83.9692 113.374L81.7908 116.034V119.397H79.7325V107.386H81.7908V113.151L86.3707 107.386H88.7721L85.3415 111.641L89.5954 119.397H87.194ZM99.652 119.397L98.7086 116.772H93.9572L93.0138 119.397H90.8354L95.3123 107.386H97.3535L101.813 119.397H99.652ZM98.0568 114.919L96.736 111.315C96.5645 110.881 96.433 110.475 96.3415 110.097C96.25 110.429 96.1185 110.835 95.947 111.315L94.6091 114.919H98.0568ZM107.344 119.603C106.246 119.603 105.297 119.329 104.496 118.779C103.707 118.219 103.147 117.458 102.815 116.497L104.719 115.794C104.971 116.354 105.331 116.806 105.8 117.149C106.269 117.481 106.806 117.647 107.412 117.647C108.041 117.647 108.539 117.504 108.905 117.218C109.282 116.932 109.471 116.52 109.471 115.983C109.471 115.765 109.419 115.565 109.316 115.382C109.213 115.188 109.093 115.027 108.956 114.902C108.83 114.776 108.636 114.65 108.373 114.524C108.11 114.398 107.887 114.301 107.704 114.232C107.521 114.152 107.252 114.055 106.898 113.941C106.44 113.78 106.086 113.655 105.834 113.563C105.594 113.472 105.28 113.323 104.891 113.117C104.513 112.9 104.222 112.682 104.016 112.465C103.822 112.248 103.644 111.962 103.484 111.607C103.336 111.241 103.261 110.841 103.261 110.406C103.261 109.491 103.616 108.724 104.325 108.107C105.034 107.489 105.994 107.18 107.206 107.18C108.213 107.18 109.048 107.42 109.711 107.901C110.374 108.37 110.82 108.987 111.049 109.754L109.196 110.372C108.83 109.548 108.121 109.136 107.069 109.136C106.532 109.136 106.109 109.251 105.8 109.479C105.503 109.697 105.354 110.011 105.354 110.423C105.354 110.698 105.468 110.944 105.697 111.161C105.937 111.378 106.189 111.544 106.452 111.659C106.726 111.761 107.126 111.899 107.652 112.07C107.995 112.196 108.253 112.293 108.424 112.362C108.607 112.419 108.859 112.522 109.179 112.671C109.499 112.82 109.751 112.957 109.934 113.083C110.117 113.197 110.323 113.357 110.551 113.563C110.791 113.769 110.974 113.986 111.1 114.215C111.226 114.433 111.335 114.696 111.426 115.005C111.518 115.302 111.563 115.628 111.563 115.983C111.563 117.104 111.163 117.99 110.363 118.642C109.574 119.283 108.567 119.603 107.344 119.603ZM114.057 119.397V107.386H116.115V119.397H114.057ZM127.16 119.603C126.063 119.603 125.113 119.329 124.313 118.779C123.524 118.219 122.964 117.458 122.632 116.497L124.536 115.794C124.788 116.354 125.148 116.806 125.617 117.149C126.085 117.481 126.623 117.647 127.229 117.647C127.858 117.647 128.355 117.504 128.721 117.218C129.099 116.932 129.287 116.52 129.287 115.983C129.287 115.765 129.236 115.565 129.133 115.382C129.03 115.188 128.91 115.027 128.773 114.902C128.647 114.776 128.453 114.65 128.19 114.524C127.927 114.398 127.704 114.301 127.521 114.232C127.338 114.152 127.069 114.055 126.714 113.941C126.257 113.78 125.902 113.655 125.651 113.563C125.411 113.472 125.096 113.323 124.707 113.117C124.33 112.9 124.039 112.682 123.833 112.465C123.638 112.248 123.461 111.962 123.301 111.607C123.152 111.241 123.078 110.841 123.078 110.406C123.078 109.491 123.432 108.724 124.141 108.107C124.85 107.489 125.811 107.18 127.023 107.18C128.029 107.18 128.864 107.42 129.527 107.901C130.191 108.37 130.637 108.987 130.865 109.754L129.013 110.372C128.647 109.548 127.938 109.136 126.886 109.136C126.348 109.136 125.925 109.251 125.617 109.479C125.319 109.697 125.171 110.011 125.171 110.423C125.171 110.698 125.285 110.944 125.514 111.161C125.754 111.378 126.005 111.544 126.268 111.659C126.543 111.761 126.943 111.899 127.469 112.07C127.812 112.196 128.069 112.293 128.241 112.362C128.424 112.419 128.676 112.522 128.996 112.671C129.316 112.82 129.567 112.957 129.75 113.083C129.933 113.197 130.139 113.357 130.368 113.563C130.608 113.769 130.791 113.986 130.917 114.215C131.043 114.433 131.151 114.696 131.243 115.005C131.334 115.302 131.38 115.628 131.38 115.983C131.38 117.104 130.98 117.99 130.179 118.642C129.39 119.283 128.384 119.603 127.16 119.603ZM141.249 119.397L138.024 113.374L135.845 116.034V119.397H133.787V107.386H135.845V113.151L140.425 107.386H142.827L139.396 111.641L143.65 119.397H141.249ZM145.714 119.397V107.386H151.032C152.415 107.386 153.416 107.729 154.033 108.415C154.662 109.102 154.977 109.977 154.977 111.041C154.977 111.784 154.765 112.482 154.342 113.134C153.919 113.786 153.307 114.232 152.507 114.473L154.908 119.397H152.592L150.277 114.696H147.772V119.397H145.714ZM147.772 112.74H151.066C151.683 112.74 152.135 112.579 152.421 112.259C152.707 111.939 152.85 111.533 152.85 111.041C152.85 110.56 152.712 110.16 152.438 109.84C152.164 109.508 151.706 109.342 151.066 109.342H147.772V112.74ZM157.542 119.397V107.386H159.601V119.397H157.542ZM171.93 119.397H170.061L165.086 111.813C164.926 111.573 164.76 111.275 164.589 110.921C164.623 111.195 164.64 111.493 164.64 111.813V119.397H162.599V107.386H164.589L169.443 114.85C169.557 115.022 169.723 115.325 169.94 115.759C169.906 115.451 169.889 115.147 169.889 114.85V107.386H171.93V119.397ZM174.93 119.397V107.386H176.988V119.397H174.93ZM189.318 119.397H187.448L182.474 111.813C182.313 111.573 182.148 111.275 181.976 110.921C182.01 111.195 182.028 111.493 182.028 111.813V119.397H179.986V107.386H181.976L186.83 114.85C186.945 115.022 187.111 115.325 187.328 115.759C187.294 115.451 187.276 115.147 187.276 114.85V107.386H189.318V119.397ZM197.069 119.603C196.177 119.603 195.382 119.431 194.684 119.088C193.998 118.734 193.449 118.259 193.038 117.664C192.626 117.069 192.317 116.412 192.111 115.691C191.906 114.97 191.803 114.204 191.803 113.392C191.803 112.797 191.866 112.208 191.991 111.624C192.129 111.041 192.34 110.48 192.626 109.943C192.912 109.405 193.255 108.936 193.655 108.536C194.055 108.124 194.547 107.798 195.13 107.558C195.725 107.306 196.371 107.18 197.069 107.18C198.121 107.18 198.967 107.397 199.607 107.832C200.248 108.255 200.802 108.844 201.271 109.599L199.436 110.646C198.772 109.662 197.983 109.17 197.069 109.17C196.497 109.17 195.994 109.302 195.559 109.565C195.136 109.817 194.81 110.16 194.581 110.595C194.353 111.018 194.187 111.464 194.084 111.933C193.981 112.402 193.93 112.888 193.93 113.392C193.93 114.581 194.193 115.582 194.719 116.394C195.245 117.207 196.028 117.613 197.069 117.613C197.732 117.613 198.281 117.395 198.715 116.961C199.161 116.526 199.384 115.994 199.384 115.365V115.176H197.274V113.237H201.477V114.902C201.477 116.377 201.065 117.533 200.242 118.368C199.419 119.191 198.361 119.603 197.069 119.603ZM1.56396 133.839H5.269C6.08091 133.839 6.81848 133.954 7.4817 134.182C8.14495 134.411 8.69384 134.714 9.12838 135.092C9.56292 135.469 9.92314 135.921 10.209 136.447C10.5063 136.962 10.7179 137.506 10.8437 138.077C10.9809 138.638 11.0495 139.227 11.0495 139.845C11.0495 140.417 10.9866 140.977 10.8608 141.526C10.7465 142.075 10.5406 142.619 10.2433 143.156C9.95744 143.683 9.59723 144.146 9.16269 144.546C8.72815 144.935 8.16782 145.25 7.4817 145.49C6.80705 145.73 6.0466 145.85 5.20039 145.85H1.56396V133.839ZM5.49199 143.911C6.09806 143.911 6.6298 143.791 7.08721 143.551C7.55603 143.311 7.91624 142.991 8.16782 142.59C8.43083 142.178 8.61951 141.744 8.73387 141.286C8.85965 140.829 8.92255 140.348 8.92255 139.845C8.92255 138.724 8.6481 137.769 8.09921 136.979C7.55031 136.179 6.74415 135.778 5.68067 135.778H3.62232V143.911H5.49199ZM20.7971 145.85L19.8537 143.225H15.1023L14.1589 145.85H11.9805L16.4574 133.839H18.4986L22.9584 145.85H20.7971ZM19.2019 141.372L17.8811 137.769C17.7096 137.334 17.5781 136.928 17.4866 136.55C17.3951 136.882 17.2636 137.288 17.0921 137.769L15.7541 141.372H19.2019ZM34.1287 145.85H32.2591L27.2847 138.266C27.1246 138.026 26.9588 137.729 26.7873 137.374C26.8216 137.648 26.8387 137.946 26.8387 138.266V145.85H24.7975V133.839H26.7873L31.6415 141.303C31.7559 141.475 31.9217 141.778 32.139 142.213C32.1047 141.904 32.0875 141.601 32.0875 141.303V133.839H34.1287V145.85ZM41.2469 145.85V133.839H46.2384C47.6221 133.839 48.6398 134.2 49.2916 134.92C49.9435 135.641 50.2694 136.522 50.2694 137.563C50.2694 138.546 49.9263 139.416 49.2402 140.171C48.5655 140.926 47.5649 141.303 46.2384 141.303H43.3053V145.85H41.2469ZM46.3413 139.347C46.9474 139.347 47.3991 139.17 47.6964 138.815C47.9937 138.461 48.1424 138.043 48.1424 137.563C48.1424 137.105 47.9995 136.699 47.7136 136.344C47.4391 135.978 46.9817 135.795 46.3413 135.795H43.3053V139.347H46.3413ZM52.1518 145.85V133.839H59.9735V135.778H54.2101V138.678H57.7608V140.617H54.2101V143.911H60.3509V145.85H52.1518ZM72.0022 145.85H70.1328L65.1585 138.266C64.9984 138.026 64.8326 137.729 64.661 137.374C64.6953 137.648 64.7125 137.946 64.7125 138.266V145.85H62.6713V133.839H64.661L69.5153 141.303C69.6297 141.475 69.7955 141.778 70.0127 142.213C69.9784 141.904 69.9613 141.601 69.9613 141.303V133.839H72.0022V145.85ZM79.513 146.056C78.7926 146.056 78.1408 145.936 77.5576 145.696C76.9744 145.456 76.4941 145.135 76.1168 144.735C75.7508 144.335 75.4421 143.86 75.1905 143.311C74.9389 142.762 74.756 142.201 74.6416 141.629C74.5387 141.057 74.4872 140.463 74.4872 139.845C74.4872 139.113 74.5787 138.398 74.7617 137.7C74.9446 137.002 75.2248 136.344 75.6022 135.727C75.9795 135.098 76.5056 134.594 77.1802 134.217C77.8549 133.828 78.6325 133.633 79.513 133.633C80.5765 133.633 81.4685 133.885 82.1889 134.388C82.9093 134.88 83.4125 135.481 83.6984 136.19L81.8458 137.031C81.5257 136.539 81.1883 136.179 80.8338 135.95C80.4908 135.721 80.0505 135.607 79.513 135.607C78.987 135.607 78.5239 135.738 78.1237 136.001C77.7349 136.253 77.4318 136.596 77.2146 137.031C77.0087 137.454 76.8543 137.906 76.7514 138.386C76.6599 138.855 76.6142 139.342 76.6142 139.845C76.6142 140.966 76.8601 141.95 77.3518 142.796C77.8549 143.643 78.5754 144.066 79.513 144.066C80.4279 144.066 81.194 143.551 81.8115 142.522L83.7155 143.242C82.8807 145.118 81.4799 146.056 79.513 146.056ZM85.9718 145.85V133.839H93.7936V135.778H88.0302V138.678H91.5809V140.617H88.0302V143.911H94.1709V145.85H85.9718ZM100.893 146.056C100.001 146.056 99.206 145.885 98.5085 145.542C97.8224 145.187 97.2735 144.712 96.8618 144.117C96.4501 143.523 96.1414 142.865 95.9356 142.144C95.7297 141.423 95.6268 140.657 95.6268 139.845C95.6268 139.25 95.6897 138.661 95.8155 138.077C95.9527 137.494 96.1643 136.934 96.4501 136.396C96.736 135.858 97.0791 135.389 97.4793 134.989C97.8796 134.577 98.3713 134.251 98.9545 134.011C99.5491 133.759 100.195 133.633 100.893 133.633C101.945 133.633 102.791 133.851 103.431 134.285C104.072 134.709 104.626 135.298 105.095 136.053L103.26 137.099C102.597 136.116 101.808 135.624 100.893 135.624C100.321 135.624 99.8178 135.755 99.3833 136.018C98.9602 136.27 98.6343 136.613 98.4056 137.048C98.1769 137.471 98.0111 137.917 97.9081 138.386C97.8052 138.855 97.7538 139.342 97.7538 139.845C97.7538 141.035 98.0168 142.035 98.5428 142.848C99.0688 143.66 99.8521 144.066 100.893 144.066C101.556 144.066 102.105 143.849 102.539 143.414C102.985 142.979 103.208 142.447 103.208 141.818V141.629H101.099V139.69H105.301V141.355C105.301 142.83 104.889 143.986 104.066 144.821C103.243 145.645 102.185 146.056 100.893 146.056ZM115.49 145.85L114.546 143.225H109.795L108.852 145.85H106.673L111.15 133.839H113.191L117.651 145.85H115.49ZM113.895 141.372L112.574 137.769C112.402 137.334 112.271 136.928 112.179 136.55C112.088 136.882 111.956 137.288 111.785 137.769L110.447 141.372H113.895ZM126.797 145.85V140.634H121.548V145.85H119.49V133.839H121.548V138.695H126.797V133.839H128.838V145.85H126.797ZM139.494 145.85L138.551 143.225H133.799L132.856 145.85H130.677L135.154 133.839H137.196L141.655 145.85H139.494ZM137.899 141.372L136.578 137.769C136.406 137.334 136.275 136.928 136.184 136.55C136.092 136.882 135.961 137.288 135.789 137.769L134.451 141.372H137.899ZM152.825 145.85H150.956L145.981 138.266C145.821 138.026 145.656 137.729 145.484 137.374C145.518 137.648 145.535 137.946 145.535 138.266V145.85H143.494V133.839H145.484L150.338 141.303C150.453 141.475 150.618 141.778 150.836 142.213C150.801 141.904 150.784 141.601 150.784 141.303V133.839H152.825V145.85ZM163.786 146.056C162.688 146.056 161.739 145.782 160.939 145.233C160.15 144.672 159.589 143.911 159.258 142.951L161.162 142.247C161.413 142.808 161.774 143.259 162.242 143.603C162.711 143.934 163.249 144.1 163.855 144.1C164.484 144.1 164.981 143.957 165.347 143.671C165.724 143.385 165.913 142.973 165.913 142.436C165.913 142.218 165.862 142.018 165.759 141.835C165.656 141.641 165.536 141.481 165.399 141.355C165.273 141.229 165.078 141.103 164.815 140.977C164.552 140.851 164.329 140.754 164.146 140.686C163.963 140.606 163.695 140.508 163.34 140.394C162.883 140.234 162.528 140.108 162.277 140.016C162.037 139.925 161.722 139.776 161.333 139.57C160.956 139.353 160.664 139.136 160.458 138.918C160.264 138.701 160.087 138.415 159.927 138.06C159.778 137.694 159.704 137.294 159.704 136.859C159.704 135.944 160.058 135.178 160.767 134.56C161.476 133.942 162.437 133.633 163.649 133.633C164.655 133.633 165.49 133.874 166.153 134.354C166.817 134.823 167.262 135.441 167.491 136.207L165.639 136.825C165.273 136.001 164.564 135.589 163.512 135.589C162.974 135.589 162.551 135.704 162.242 135.933C161.945 136.15 161.796 136.465 161.796 136.876C161.796 137.151 161.911 137.397 162.139 137.614C162.38 137.832 162.631 137.997 162.894 138.112C163.169 138.215 163.569 138.352 164.095 138.524C164.438 138.649 164.695 138.747 164.867 138.815C165.05 138.872 165.301 138.975 165.622 139.124C165.942 139.273 166.193 139.41 166.376 139.536C166.559 139.65 166.765 139.811 166.994 140.016C167.234 140.222 167.417 140.44 167.543 140.668C167.668 140.886 167.777 141.149 167.869 141.458C167.96 141.755 168.006 142.081 168.006 142.436C168.006 143.557 167.606 144.443 166.805 145.095C166.016 145.736 165.01 146.056 163.786 146.056ZM175.113 135.813V145.85H173.054V135.813H169.641V133.839H178.526V135.813H175.113ZM185.262 146.056C184.61 146.056 184.015 145.976 183.478 145.816C182.94 145.645 182.449 145.381 182.003 145.027C181.557 144.661 181.208 144.163 180.956 143.534C180.705 142.893 180.579 142.138 180.579 141.269V133.839H182.637V141.269C182.637 142.31 182.86 143.042 183.306 143.465C183.764 143.877 184.415 144.083 185.262 144.083C186.108 144.083 186.754 143.871 187.2 143.448C187.657 143.025 187.886 142.299 187.886 141.269V133.839H189.944V141.269C189.944 142.127 189.819 142.876 189.567 143.517C189.327 144.146 188.984 144.644 188.538 145.01C188.103 145.364 187.612 145.627 187.063 145.799C186.525 145.971 185.925 146.056 185.262 146.056ZM202.107 145.85H200.238L195.263 138.266C195.103 138.026 194.937 137.729 194.766 137.374C194.8 137.648 194.817 137.946 194.817 138.266V145.85H192.776V133.839H194.766L199.62 141.303C199.734 141.475 199.9 141.778 200.118 142.213C200.083 141.904 200.066 141.601 200.066 141.303V133.839H202.107V145.85ZM209.72 135.813V145.85H207.662V135.813H204.249V133.839H213.134V135.813H209.72ZM215.358 145.85V133.839H217.416V145.85H215.358ZM229.746 145.85H227.876L222.902 138.266C222.742 138.026 222.576 137.729 222.404 137.374C222.439 137.648 222.456 137.946 222.456 138.266V145.85H220.414V133.839H222.404L227.258 141.303C227.373 141.475 227.539 141.778 227.756 142.213C227.722 141.904 227.704 141.601 227.704 141.303V133.839H229.746V145.85ZM237.497 146.056C236.605 146.056 235.81 145.885 235.112 145.542C234.426 145.187 233.877 144.712 233.466 144.117C233.054 143.523 232.745 142.865 232.539 142.144C232.334 141.423 232.231 140.657 232.231 139.845C232.231 139.25 232.294 138.661 232.419 138.077C232.557 137.494 232.768 136.934 233.054 136.396C233.34 135.858 233.683 135.389 234.083 134.989C234.483 134.577 234.975 134.251 235.558 134.011C236.153 133.759 236.799 133.633 237.497 133.633C238.549 133.633 239.395 133.851 240.035 134.285C240.676 134.709 241.23 135.298 241.699 136.053L239.864 137.099C239.201 136.116 238.411 135.624 237.497 135.624C236.925 135.624 236.422 135.755 235.987 136.018C235.564 136.27 235.238 136.613 235.009 137.048C234.781 137.471 234.615 137.917 234.512 138.386C234.409 138.855 234.358 139.342 234.358 139.845C234.358 141.035 234.621 142.035 235.147 142.848C235.673 143.66 236.456 144.066 237.497 144.066C238.16 144.066 238.709 143.849 239.143 143.414C239.589 142.979 239.812 142.447 239.812 141.818V141.629H237.702V139.69H241.905V141.355C241.905 142.83 241.493 143.986 240.67 144.821C239.847 145.645 238.789 146.056 237.497 146.056Z" fill="#31BA65"/>
</svg>
