<svg width="68" height="112" viewBox="0 0 68 112" fill="none" xmlns="http://www.w3.org/2000/svg">
<ellipse cx="34" cy="105.5" rx="34" ry="6.5" fill="#29BB66"/>
<path d="M21.6521 100.252L24.323 84.5423L24.5354 83.1222L33.671 83.5205L29.0515 100.252L21.6521 100.252Z" fill="#F2A97C"/>
<path d="M36.9688 100.789L38.4036 85.4546L38.6267 84.0509L47.7662 83.7558L44.4279 100.789L36.9688 100.789Z" fill="#F2A97C"/>
<path d="M23.5664 87.8478L24.045 85.9332L33.1391 85.4546L32.6604 87.8478H23.5664Z" fill="#B95E26"/>
<path d="M37.9258 87.8477L38.4044 85.5503L47.4984 84.976L47.0198 87.8477H37.9258Z" fill="#B95E26"/>
<path d="M37.9257 42.8563C36.777 42.4734 33.2989 42.6968 31.7035 42.8563L30.2676 46.6853L38.883 50.5144C40.6379 49.0785 44.0522 46.0153 43.6693 45.2494C43.1907 44.2922 39.3616 43.335 37.9257 42.8563Z" fill="#DBBE75"/>
<path d="M33.1387 44.2922L33.6173 39.0272L39.8395 40.4631L41.2754 45.7281C36.9677 48.1212 33.2982 45.0899 33.1387 44.2922Z" fill="#F2A97C"/>
<path d="M33.172 39.606V37.1127L39.3673 38.6087L40.797 39.9845C37.9255 44.7708 33.1392 40.4631 33.172 39.606Z" fill="#B95E26"/>
<path d="M16.0579 80.8734C15.4572 80.8734 16.8087 77.8649 17.5596 76.3606H22.0646C22.5652 77.2381 22.6091 77.605 22.6091 79.711C22.6091 81.817 22.0646 81.2495 21.3138 79.7452C21.3138 79.7452 20.7131 82.9042 19.8121 83.5059C18.911 84.1076 19.6869 81.2495 20.1875 79.7452C20.1875 79.7452 18.8359 82.9794 17.9349 83.882C17.0339 84.7845 18.3103 80.9988 19.0612 78.9931C19.0612 78.9931 17.4094 82.4529 16.8086 82.7538C16.2079 83.0546 17.3092 79.8706 17.9349 78.2409C17.9349 78.2409 16.6586 80.8734 16.0579 80.8734Z" fill="#F2A97C"/>
<path d="M21.6523 85.9332L23.0882 78.2751L24.5241 71.0956C24.5241 71.0956 42.7122 71.2551 48.9344 70.6169V85.9332C48.9344 85.9332 39.6808 87.3691 36.49 86.8904L36.0113 81.1469L34.5754 86.8904C34.5754 86.8904 24.5241 87.2095 21.6523 85.9332Z" fill="#6EA498"/>
<path d="M44.3221 39.5671C54.852 33.8235 47.9497 18.3517 45.758 14.6782C45.758 14.6782 43.652 10.0834 40.9716 8.93464C38.2912 7.78593 34.8251 6.89832 29.2831 7.8218C26.4108 8.30043 17.4229 11.9022 18.9546 21.8577C20.8691 34.3022 33.7922 45.3107 44.3221 39.5671Z" fill="#F2A97C"/>
<path d="M14.4722 13.1811C13.7064 18.1589 17.0249 23.5515 18.7799 25.6256C20.0564 26.4233 22.8007 27.923 23.5665 27.5401C24.5238 27.0615 22.6092 24.6683 23.5665 24.1897C24.5238 23.711 25.0024 19.4033 27.3956 19.4033C29.7887 19.4033 29.3101 14.617 31.7033 14.617C34.0964 14.617 33.6178 11.2666 36.9682 10.788C39.6486 10.405 43.1904 13.6597 46.5409 16.5315C47.9768 14.617 47.2109 13.8512 46.0622 12.7025C44.6263 11.2666 46.5409 10.7879 48.4554 7.43752C50.3699 4.08709 40.3186 -2.13517 40.3186 0.736645C40.3186 3.60846 33.6178 4.08711 29.3101 3.60848C25.0024 3.12985 15.4295 6.95891 14.4722 13.1811Z" fill="#010101"/>
<ellipse cx="21.1009" cy="27.1262" rx="3.82906" ry="4.57697" transform="rotate(-40.2212 21.1009 27.1262)" fill="#F2A97C"/>
<path d="M19.2588 25.6256C20.0565 25.3065 21.7477 25.0512 22.1306 26.5829C22.5135 28.1145 22.6092 29.1355 22.6092 29.4546" stroke="#B25232" stroke-width="0.5" stroke-linecap="round"/>
<path d="M21.1734 25.6255C20.3757 25.785 19.3544 26.3913 19.7373 27.54" stroke="#B25232" stroke-width="0.5" stroke-linecap="round"/>
<ellipse cx="35.0539" cy="24.1897" rx="0.957265" ry="1.4359" fill="#010101"/>
<ellipse cx="42.7121" cy="24.1897" rx="0.957265" ry="1.4359" fill="#010101"/>
<path d="M40.3266 29.839C39.1505 30.1385 38.1991 30.0432 37.1092 29.8423C36.1852 29.672 35.1439 30.1613 35.2142 31.0983C35.2825 32.0088 35.8906 32.6875 36.9704 33.2363C38.9991 34.2673 43.5782 31.3987 43.8864 29.8389C44.1946 28.2791 42.4549 29.297 40.3266 29.839Z" fill="white"/>
<path d="M38.4043 26.1042C39.6807 25.7851 42.2223 25.633 40.7975 26.5828C39.3616 27.5401 40.1593 28.4975 39.8402 28.4975" stroke="#B25232" stroke-width="0.5" stroke-linecap="round"/>
<path d="M31.4105 21.1639C31.3078 20.3776 32.9798 19.511 35.1449 19.2283C37.31 18.9457 37.8227 19.4276 37.5087 20.3678C37.398 20.8565 36.6247 20.4832 34.4596 20.7659C32.2945 21.0486 31.5131 21.9503 31.4105 21.1639Z" fill="#010101"/>
<path d="M45.2566 20.9248C45.3593 20.1384 44.2021 19.339 42.672 19.1393C41.1419 18.9395 40.7589 19.4384 40.947 20.3621C41.0074 20.8442 41.5717 20.4437 43.1018 20.6435C44.6319 20.8432 45.1539 21.7111 45.2566 20.9248Z" fill="#010101"/>
<path d="M40.3184 31.8491C40.3184 32.3777 39.247 32.8063 37.9253 32.8063C36.6036 32.8063 36.0107 32.3778 36.0107 31.8491C36.0107 31.3204 36.6036 31.3704 37.9253 31.3704C39.247 31.3704 40.3184 31.3204 40.3184 31.8491Z" fill="#FDAEAE" fill-opacity="0.46"/>
<path d="M36.9678 46.2664C34.2875 46.2664 32.6601 44.0328 32.1815 42.9159C30.9051 42.7564 27.7781 42.8202 25.4806 44.3518C23.1832 45.8835 18.7798 66.3689 16.8652 76.4202C16.8652 76.4202 21.3325 76.8988 23.5661 76.4202L24.5234 72.1125C24.5234 72.1125 42.5518 71.7934 50.8481 71.1553C50.6886 69.7194 50.4652 66.7518 50.8481 66.3689C51.3268 65.8903 55.1558 57.2749 55.1558 54.8818C55.1558 52.9672 46.5404 47.0641 42.2328 44.3518C41.5946 44.99 39.6481 46.2664 36.9678 46.2664Z" fill="#EDD493"/>
<path d="M24.5234 72.0529L25.9593 65.3521" stroke="#CFB87C" stroke-width="0.5" stroke-linecap="round"/>
<path d="M31.2246 42.8563C32.1819 44.4518 34.7665 47.5469 37.4468 47.164C40.1272 46.7811 42.3927 45.2495 42.7118 44.7709" stroke="#CFB87C" stroke-width="0.5" stroke-linecap="round"/>
<path d="M51.806 55.3008L50.3701 57.2153" stroke="#CFB87C" stroke-width="0.5" stroke-linecap="round"/>
<path d="M53.242 61.5229L50.3702 66.7879L49.8916 58.1725L53.242 61.5229Z" fill="#EECF80"/>
<path d="M26.9168 72.0529L23.5664 86.4118" stroke="#5D897F" stroke-width="0.5"/>
<path d="M25.96 76.8392C26.9172 76.9987 29.3104 76.2648 31.2249 72.0529" stroke="#5D897F" stroke-width="0.5"/>
<path d="M36.0107 81.1469L39.3612 79.711M36.0107 72.0529V76.3605L37.4466 77.3178V72.0529" stroke="#5D897F" stroke-width="0.5"/>
<path d="M46.541 71.5742L48.9342 74.446" stroke="#5D897F" stroke-width="0.5"/>
<path d="M20.6994 100.132C20.7031 99.1504 21.502 98.3575 22.4838 98.3611L28.2274 98.3824C30.9463 98.3925 33.1422 100.605 33.1321 103.324C33.1304 103.777 32.7617 104.143 32.3086 104.141L23.5565 104.109C21.9704 104.103 20.6895 102.812 20.6954 101.226L20.6994 100.132Z" fill="black"/>
<path d="M36.122 100.309C36.1328 99.3268 36.9375 98.5397 37.9193 98.5505L43.6625 98.6139C46.3813 98.6439 48.561 100.872 48.531 103.591C48.526 104.044 48.1546 104.407 47.7015 104.402L38.9499 104.306C37.3639 104.288 36.0924 102.988 36.1099 101.403L36.122 100.309Z" fill="#0D0D0D"/>
</svg>
