<svg width="140" height="140" viewBox="0 0 140 140" fill="none" xmlns="http://www.w3.org/2000/svg">
<rect width="140" height="140" rx="20" fill="#FCFBE7"/>
<path d="M98.3747 56.6666C93.7226 56.6666 91.1238 61.2866 92.1826 64.7195L80.793 76.1412C79.8305 75.8525 78.4188 75.8525 77.4563 76.1412L69.2751 67.96C70.3659 64.527 67.7672 59.875 63.083 59.875C58.4309 59.875 55.8001 64.495 56.8909 67.96L42.2609 82.5579C38.828 81.4991 34.208 84.0979 34.208 88.75C34.208 92.2791 37.0955 95.1666 40.6247 95.1666C45.2768 95.1666 47.8755 90.5466 46.8168 87.1137L61.4147 72.4837C62.3772 72.7725 63.7888 72.7725 64.7513 72.4837L72.9326 80.665C71.8418 84.0979 74.4405 88.75 79.1247 88.75C83.7768 88.75 86.4076 84.13 85.3168 80.665L96.7384 69.2754C100.171 70.3341 104.791 67.7354 104.791 63.0833C104.791 59.5541 101.904 56.6666 98.3747 56.6666Z" fill="#FDC761"/>
<path d="M79.125 59.875L82.1408 53.2337L88.75 50.25L82.1408 47.2663L79.125 40.625L76.1733 47.2663L69.5 50.25L76.1733 53.2337L79.125 59.875Z" fill="#FDC761"/>
<path d="M42.2288 66.2917L43.833 59.875L50.2497 58.2708L43.833 56.6667L42.2288 50.25L40.6247 56.6667L34.208 58.2708L40.6247 59.875L42.2288 66.2917Z" fill="#FDC761"/>
</svg>
