<svg width="140" height="140" viewBox="0 0 140 140" fill="none" xmlns="http://www.w3.org/2000/svg">
<rect width="140" height="140" rx="20" fill="#E7FEF2"/>
<path d="M54.3189 44.09L49.731 39.5021C42.031 45.3734 36.9619 54.4209 36.5127 64.6875H42.9294C43.4106 56.1855 47.7739 48.7421 54.3189 44.09ZM94.0702 64.6875H100.487C100.006 54.4209 94.9364 45.3734 87.2685 39.5021L82.7127 44.09C89.1935 48.7421 93.5889 56.1855 94.0702 64.6875ZM87.7498 66.2917C87.7498 56.4421 82.4881 48.1967 73.3123 46.015V43.8334C73.3123 41.1705 71.1627 39.0209 68.4998 39.0209C65.8369 39.0209 63.6873 41.1705 63.6873 43.8334V46.015C54.4794 48.1967 49.2498 56.41 49.2498 66.2917V82.3334L42.8331 88.75V91.9584H94.1664V88.75L87.7498 82.3334V66.2917ZM68.4998 101.583C68.9489 101.583 69.366 101.551 69.7831 101.455C71.8685 101.006 73.5689 99.5942 74.4031 97.6692C74.7239 96.8992 74.8844 96.065 74.8844 95.1667H62.051C62.0831 98.6959 64.9385 101.583 68.4998 101.583Z" fill="#31BA65"/>
</svg>
