<svg width="140" height="140" viewBox="0 0 140 140" fill="none" xmlns="http://www.w3.org/2000/svg">
<rect width="140" height="140" rx="20" fill="#F3F1FF"/>
<path d="M77.9167 51.6667V58.0834H68.2917L59.6613 54.2975L55.4583 66.9063V96.5834H42.625V64.5L47.6942 49.6455C48.9133 46.0521 52.9558 44.2555 56.4208 45.8275L69.7354 51.6988L77.9167 51.6667ZM58.6667 29.2084C55.1375 29.2084 52.25 32.0959 52.25 35.625C52.25 39.1542 55.1375 42.0417 58.6667 42.0417C62.1958 42.0417 65.0833 39.1542 65.0833 35.625C65.0833 32.0959 62.1958 29.2084 58.6667 29.2084ZM61.875 86.9584H100.375V80.5417H61.875V86.9584ZM95.5625 77.3334C98.2254 77.3334 100.375 75.1838 100.375 72.5209C100.375 69.858 98.2254 67.7084 95.5625 67.7084C92.8996 67.7084 90.75 69.858 90.75 72.5209C90.75 75.1838 92.8996 77.3334 95.5625 77.3334ZM74.7083 64.5C74.7083 62.7355 73.2646 61.2917 71.5 61.2917H61.875V67.7084H68.2917V70.9167C68.2917 74.4459 71.1792 77.3334 74.7083 77.3334H81.125C84.6542 77.3334 87.5417 74.4459 87.5417 70.9167V61.2917H81.125V67.7084H74.7083V64.5Z" fill="#7C67B9"/>
</svg>
