<svg width="211" height="211" viewBox="0 0 211 211" fill="none" xmlns="http://www.w3.org/2000/svg">
<circle cx="105.5" cy="105.5" r="105.5" fill="#F3F1FF"/>
<path d="M118.917 92.6667V99.0834H109.292L100.661 95.2975L96.4583 107.906V137.583H83.625V105.5L88.6942 90.6455C89.9133 87.0521 93.9558 85.2555 97.4208 86.8275L110.735 92.6988L118.917 92.6667ZM99.6667 70.2084C96.1375 70.2084 93.25 73.0959 93.25 76.625C93.25 80.1542 96.1375 83.0417 99.6667 83.0417C103.196 83.0417 106.083 80.1542 106.083 76.625C106.083 73.0959 103.196 70.2084 99.6667 70.2084ZM102.875 127.958H141.375V121.542H102.875V127.958ZM136.562 118.333C139.225 118.333 141.375 116.184 141.375 113.521C141.375 110.858 139.225 108.708 136.562 108.708C133.9 108.708 131.75 110.858 131.75 113.521C131.75 116.184 133.9 118.333 136.562 118.333ZM115.708 105.5C115.708 103.735 114.265 102.292 112.5 102.292H102.875V108.708H109.292V111.917C109.292 115.446 112.179 118.333 115.708 118.333H122.125C125.654 118.333 128.542 115.446 128.542 111.917V102.292H122.125V108.708H115.708V105.5Z" fill="#7C67B9"/>
</svg>
