<svg width="211" height="211" viewBox="0 0 211 211" fill="none" xmlns="http://www.w3.org/2000/svg">
<circle cx="105.5" cy="105.5" r="105.5" fill="#FBF2F0"/>
<path d="M136.791 77.6458V124.167C136.791 131.225 131.016 137 123.958 137H100.537C97.0722 137 93.7997 135.62 91.3934 133.182L66.208 107.58C66.208 107.58 70.2505 103.633 70.3788 103.569C71.0847 102.96 71.9509 102.639 72.9134 102.639C73.6193 102.639 74.2609 102.831 74.8384 103.152C74.9668 103.184 88.6663 111.045 88.6663 111.045V72.8333C88.6663 70.1704 90.8159 68.0208 93.4788 68.0208C96.1418 68.0208 98.2913 70.1704 98.2913 72.8333V95.2917H101.5V64.8125C101.5 62.1496 103.649 60 106.312 60C108.975 60 111.125 62.1496 111.125 64.8125V95.2917H114.333V68.0208C114.333 65.3579 116.483 63.2083 119.146 63.2083C121.808 63.2083 123.958 65.3579 123.958 68.0208V95.2917H127.166V77.6458C127.166 74.9829 129.316 72.8333 131.979 72.8333C134.642 72.8333 136.791 74.9829 136.791 77.6458Z" fill="#F14A32"/>
</svg>
